<?xml version="1.0" encoding="UTF-8"?>
<!DOCTYPE svg PUBLIC "-//W3C//DTD SVG 1.1//EN" "http://www.w3.org/Graphics/SVG/1.1/DTD/svg11.dtd">
<svg xmlns="http://www.w3.org/2000/svg" version="1.1" width="1080px" height="602px" style="shape-rendering:geometricPrecision; text-rendering:geometricPrecision; image-rendering:optimizeQuality; fill-rule:evenodd; clip-rule:evenodd" xmlns:xlink="http://www.w3.org/1999/xlink">
<g><path style="opacity:0.905" fill="#f8f8f6" d="M 717.5,29.5 C 719.752,29.9156 721.252,31.249 722,33.5C 722.667,43.1667 722.667,52.8333 722,62.5C 719.639,67.6619 717.639,67.3286 716,61.5C 715.333,51.5 715.333,41.5 716,31.5C 716.717,30.9558 717.217,30.2891 717.5,29.5 Z"/></g>
<g><path style="opacity:0.643" fill="#f9f9f7" d="M 619.5,70.5 C 623.203,70.8624 626.203,72.529 628.5,75.5C 633.512,81.012 638.679,86.3453 644,91.5C 644.483,92.448 644.649,93.448 644.5,94.5C 642.011,94.7022 639.677,94.2022 637.5,93C 631.333,86.8333 625.167,80.6667 619,74.5C 618.421,73.0715 618.588,71.7382 619.5,70.5 Z"/></g>
<g><path style="opacity:1" fill="#f3f3f0" d="M 814.5,71.5 C 816.167,71.5 817.833,71.5 819.5,71.5C 819.649,72.552 819.483,73.552 819,74.5C 813.282,80.7622 807.449,86.9289 801.5,93C 799.305,94.373 796.971,94.7063 794.5,94C 793.549,93.2825 793.383,92.4491 794,91.5C 801.338,85.3288 808.171,78.6621 814.5,71.5 Z"/></g>
<g><path style="opacity:0.983" fill="#fcfcfb" d="M 683.5,248.5 C 685.196,248.315 686.529,247.481 687.5,246C 692.155,245.501 696.821,245.334 701.5,245.5C 701.833,245.5 702.167,245.5 702.5,245.5C 707.167,246.833 711.833,246.833 716.5,245.5C 719.119,245.768 721.619,245.435 724,244.5C 724.497,241.854 724.664,239.187 724.5,236.5C 725.5,236.5 726.5,236.5 727.5,236.5C 727.548,239.313 728.215,241.979 729.5,244.5C 738.482,245.665 747.482,245.832 756.5,245C 747.84,244.5 739.173,244.334 730.5,244.5C 730.666,237.492 730.5,230.492 730,223.5C 729.722,224.416 729.222,225.082 728.5,225.5C 729.959,188.5 729.792,151.5 728,114.5C 724.542,106.171 723.209,97.5045 724,88.5C 758.92,88.6282 784.253,104.295 800,135.5C 812.929,173.369 804.596,205.703 775,232.5C 768.418,239.49 766.585,247.49 769.5,256.5C 769.007,259.485 767.84,262.152 766,264.5C 767.518,279.024 761.018,284.69 746.5,281.5C 746.358,286.124 744.358,289.624 740.5,292C 730.426,292.923 720.426,292.59 710.5,291C 707.938,288.711 706.271,285.877 705.5,282.5C 701.541,281.673 697.541,281.173 693.5,281C 691.152,280.654 689.319,279.487 688,277.5C 686.796,273.284 686.13,268.951 686,264.5C 685.085,263.672 684.419,262.672 684,261.5C 683.734,257.026 683.567,252.693 683.5,248.5 Z M 696.5,252.5 C 718.14,253.456 739.807,253.789 761.5,253.5C 761.762,258.07 759.596,260.07 755,259.5C 733.955,259.385 712.788,259.385 691.5,259.5C 691.5,257.5 691.5,255.5 691.5,253.5C 693.415,253.784 695.081,253.451 696.5,252.5 Z M 694.5,267.5 C 715.5,267.5 736.5,267.5 757.5,267.5C 757.5,269.833 757.5,272.167 757.5,274.5C 748.245,274.864 739.078,274.197 730,272.5C 718.239,274.384 706.405,274.884 694.5,274C 693.232,271.837 693.232,269.67 694.5,267.5 Z M 713.5,281.5 C 722.173,281.334 730.84,281.5 739.5,282C 738.833,283 738.167,284 737.5,285C 730.167,285.667 722.833,285.667 715.5,285C 714.027,284.29 713.36,283.124 713.5,281.5 Z"/></g>
<g><path style="opacity:1" fill="#747473" d="M 683.5,89.5 C 683.5,91.5 683.5,93.5 683.5,95.5C 676.993,97.0879 670.993,99.7545 665.5,103.5C 665.843,101.517 665.176,100.183 663.5,99.5C 669.301,94.5992 675.968,91.2659 683.5,89.5 Z"/></g>
<g><path style="opacity:1" fill="#f8f8f6" d="M 701.5,93.5 C 704.454,95.2805 707.287,97.2805 710,99.5C 710.495,101.473 710.662,103.473 710.5,105.5C 710.5,111.5 710.5,117.5 710.5,123.5C 710.656,138.98 709.489,138.646 707,122.5C 705.951,120.893 704.451,120.227 702.5,120.5C 702.34,123.884 702.673,127.217 703.5,130.5C 703.058,131.739 702.391,132.739 701.5,133.5C 697.041,134.293 694.708,136.96 694.5,141.5C 693.03,144.686 693.53,147.686 696,150.5C 697,149.833 698,149.167 699,148.5C 699.497,146.19 699.663,143.857 699.5,141.5C 699.833,140.5 700.5,139.833 701.5,139.5C 702.265,139.077 703.098,138.743 704,138.5C 705.412,139.686 706.579,141.019 707.5,142.5C 708.981,146.416 709.814,150.416 710,154.5C 708.667,153.167 707.333,153.167 706,154.5C 705.22,156.387 705.387,158.054 706.5,159.5C 706.5,160.5 706.5,161.5 706.5,162.5C 704.833,162.5 703.167,162.5 701.5,162.5C 698.528,160.35 695.195,159.35 691.5,159.5C 692.584,164.247 695.584,166.914 700.5,167.5C 703.625,168.479 706.958,168.813 710.5,168.5C 710.5,171.5 710.5,174.5 710.5,177.5C 710.5,183.167 710.5,188.833 710.5,194.5C 709.833,194.5 709.167,194.5 708.5,194.5C 706.625,189.079 704.459,183.746 702,178.5C 694.817,172.658 689.15,165.658 685,157.5C 684.333,155.5 684.333,153.5 685,151.5C 688.496,148.958 688.33,146.958 684.5,145.5C 682.444,147.557 680.11,149.223 677.5,150.5C 673.856,149.345 670.523,147.678 667.5,145.5C 666,145.453 665,146.119 664.5,147.5C 666.498,151.677 669.831,154.177 674.5,155C 679.144,157.641 682.311,161.475 684,166.5C 692.371,174.675 698.871,184.009 703.5,194.5C 705.167,197.824 707.334,200.824 710,203.5C 710.499,208.823 710.666,214.156 710.5,219.5C 709.5,219.5 708.5,219.5 707.5,219.5C 707.6,216.333 706.933,213.333 705.5,210.5C 703.182,209.166 701.515,209.832 700.5,212.5C 705.166,227.52 699.499,234.186 683.5,232.5C 681.167,231.833 678.833,231.167 676.5,230.5C 672.603,227.391 668.936,224.057 665.5,220.5C 661.481,216.479 657.814,212.146 654.5,207.5C 655.025,206.808 655.692,206.308 656.5,206C 659.482,205.502 662.482,205.335 665.5,205.5C 675.612,207.529 685.612,209.862 695.5,212.5C 694.94,209.003 692.94,206.503 689.5,205C 691.791,201.281 695.124,199.615 699.5,200C 700.38,198.644 700.714,197.144 700.5,195.5C 697.482,195.335 694.482,195.502 691.5,196C 687.711,198.127 684.211,200.627 681,203.5C 675.96,201.781 670.794,200.781 665.5,200.5C 661.121,200.292 656.787,200.625 652.5,201.5C 650.213,200.873 648.546,199.54 647.5,197.5C 647.443,196.391 647.11,195.391 646.5,194.5C 645.185,193.105 645.519,192.105 647.5,191.5C 653.5,191.167 659.5,190.833 665.5,190.5C 671.394,191.956 677.394,192.623 683.5,192.5C 686.675,191.818 688.175,189.818 688,186.5C 688.837,182.852 688.337,179.519 686.5,176.5C 686.368,173.203 684.702,171.537 681.5,171.5C 681.92,173.674 681.92,175.674 681.5,177.5C 679.96,175.613 678.293,173.78 676.5,172C 675.552,171.517 674.552,171.351 673.5,171.5C 673.338,173.527 673.505,175.527 674,177.5C 677.216,180.36 679.883,183.36 682,186.5C 681.107,187.081 680.107,187.415 679,187.5C 674.531,186.561 670.031,185.894 665.5,185.5C 658.167,185.5 650.833,185.5 643.5,185.5C 641.733,183.208 640.733,180.542 640.5,177.5C 644.492,177.351 648.492,177.017 652.5,176.5C 657.08,176.887 661.414,176.053 665.5,174C 667,171.833 666.5,170.333 664,169.5C 660.549,170.659 657.049,171.159 653.5,171C 650.986,167.587 649.986,163.753 650.5,159.5C 650.505,155.466 650.838,151.466 651.5,147.5C 649.62,147.229 648.287,147.896 647.5,149.5C 645.926,151.102 645.259,153.102 645.5,155.5C 643.954,160.119 644.62,164.452 647.5,168.5C 647.5,169.5 647.5,170.5 647.5,171.5C 640.045,170.983 637.378,166.983 639.5,159.5C 640.886,153.905 641.886,148.238 642.5,142.5C 644.451,141.359 646.451,141.359 648.5,142.5C 649.833,142.5 651.167,142.5 652.5,142.5C 654.059,145.868 654.892,149.535 655,153.5C 655.935,156.595 657.769,158.929 660.5,160.5C 663.259,162.293 666.259,162.793 669.5,162C 670.451,161.282 670.617,160.449 670,159.5C 668.67,158.418 667.17,157.751 665.5,157.5C 659.548,153.712 657.548,148.379 659.5,141.5C 661.297,140.27 663.297,139.604 665.5,139.5C 668.104,139.402 670.104,138.235 671.5,136C 671.355,135.228 671.022,134.561 670.5,134C 668.288,133.211 666.288,133.378 664.5,134.5C 660.512,135.495 656.512,136.495 652.5,137.5C 651.075,137.377 649.742,137.043 648.5,136.5C 647.528,135.601 646.862,134.434 646.5,133C 647.34,128.653 649.007,124.653 651.5,121C 656.113,117.932 660.779,117.765 665.5,120.5C 666.436,121.974 667.77,122.974 669.5,123.5C 673.034,128.725 676.701,133.892 680.5,139C 681.793,139.49 683.127,139.657 684.5,139.5C 683.886,135.865 683.552,132.198 683.5,128.5C 687.229,126.306 691.229,124.639 695.5,123.5C 696.429,122.311 696.762,120.978 696.5,119.5C 691.644,118.839 687.31,119.839 683.5,122.5C 681.852,123.81 680.186,125.143 678.5,126.5C 677.712,125.23 676.712,124.23 675.5,123.5C 673.146,120.149 670.146,117.482 666.5,115.5C 662.979,114.834 659.313,114.167 655.5,113.5C 657.856,110.814 660.189,108.147 662.5,105.5C 663.5,104.833 664.5,104.167 665.5,103.5C 670.993,99.7545 676.993,97.0879 683.5,95.5C 684.573,96.2506 684.74,97.2506 684,98.5C 678.543,102.87 676.71,108.37 678.5,115C 679.793,115.49 681.127,115.657 682.5,115.5C 682.348,106.491 686.681,101.324 695.5,100C 695.957,99.586 696.291,99.086 696.5,98.5C 694.393,95.9391 691.726,94.1058 688.5,93C 692.898,91.1108 697.231,91.2774 701.5,93.5 Z"/></g>
<g><path style="opacity:1" fill="#474848" d="M 701.5,88.5 C 701.5,90.1667 701.5,91.8333 701.5,93.5C 697.231,91.2774 692.898,91.1108 688.5,93C 691.726,94.1058 694.393,95.9391 696.5,98.5C 696.291,99.086 695.957,99.586 695.5,100C 686.681,101.324 682.348,106.491 682.5,115.5C 681.127,115.657 679.793,115.49 678.5,115C 676.71,108.37 678.543,102.87 684,98.5C 684.74,97.2506 684.573,96.2506 683.5,95.5C 683.5,93.5 683.5,91.5 683.5,89.5C 689.308,86.531 695.308,86.1977 701.5,88.5 Z"/></g>
<g><path style="opacity:0.004" fill="#131313" d="M 717.5,98.5 C 719.048,98.8212 719.715,99.8212 719.5,101.5C 718.094,101.027 717.427,100.027 717.5,98.5 Z"/></g>
<g><path style="opacity:1" fill="#414241" d="M 663.5,99.5 C 665.176,100.183 665.843,101.517 665.5,103.5C 664.5,104.167 663.5,104.833 662.5,105.5C 660.517,105.843 659.183,105.176 658.5,103.5C 659.579,101.457 661.246,100.124 663.5,99.5 Z"/></g>
<g><path style="opacity:1" fill="#333336" d="M 710.5,105.5 C 712.167,105.5 713.833,105.5 715.5,105.5C 715.5,111.5 715.5,117.5 715.5,123.5C 713.833,123.5 712.167,123.5 710.5,123.5C 710.5,117.5 710.5,111.5 710.5,105.5 Z"/></g>
<g><path style="opacity:1" fill="#343538" d="M 666.5,115.5 C 670.146,117.482 673.146,120.149 675.5,123.5C 673.5,123.5 671.5,123.5 669.5,123.5C 667.77,122.974 666.436,121.974 665.5,120.5C 665.216,118.585 665.549,116.919 666.5,115.5 Z"/></g>
<g><path style="opacity:1" fill="#404142" d="M 683.5,128.5 C 683.5,126.5 683.5,124.5 683.5,122.5C 687.31,119.839 691.644,118.839 696.5,119.5C 696.762,120.978 696.429,122.311 695.5,123.5C 691.229,124.639 687.229,126.306 683.5,128.5 Z"/></g>
<g><path style="opacity:1" fill="#121214" d="M 776.5,123.5 C 775.5,123.5 774.5,123.5 773.5,123.5C 773.5,125.167 773.5,126.833 773.5,128.5C 769.258,124.787 766.092,120.453 764,115.5C 765.049,114.483 766.216,114.316 767.5,115C 771,117.334 774,120.168 776.5,123.5 Z"/></g>
<g><path style="opacity:1" fill="#535454" d="M 776.5,123.5 C 781.669,128.49 785.336,134.49 787.5,141.5C 785.5,141.5 783.5,141.5 781.5,141.5C 778.841,137.172 776.174,132.838 773.5,128.5C 773.5,126.833 773.5,125.167 773.5,123.5C 774.5,123.5 775.5,123.5 776.5,123.5 Z"/></g>
<g><path style="opacity:1" fill="#606063" d="M 683.5,122.5 C 683.5,124.5 683.5,126.5 683.5,128.5C 683.552,132.198 683.886,135.865 684.5,139.5C 683.127,139.657 681.793,139.49 680.5,139C 676.701,133.892 673.034,128.725 669.5,123.5C 671.5,123.5 673.5,123.5 675.5,123.5C 676.712,124.23 677.712,125.23 678.5,126.5C 680.186,125.143 681.852,123.81 683.5,122.5 Z"/></g>
<g><path style="opacity:1" fill="#6e6e6f" d="M 658.5,103.5 C 659.183,105.176 660.517,105.843 662.5,105.5C 660.189,108.147 657.856,110.814 655.5,113.5C 659.313,114.167 662.979,114.834 666.5,115.5C 665.549,116.919 665.216,118.585 665.5,120.5C 660.779,117.765 656.113,117.932 651.5,121C 649.007,124.653 647.34,128.653 646.5,133C 646.862,134.434 647.528,135.601 648.5,136.5C 647.258,138.389 647.258,140.389 648.5,142.5C 646.451,141.359 644.451,141.359 642.5,142.5C 641.081,141.549 639.415,141.216 637.5,141.5C 640.79,128.799 646.29,117.132 654,106.5C 655.271,105.117 656.771,104.117 658.5,103.5 Z"/></g>
<g><path style="opacity:1" fill="#777876" d="M 701.5,88.5 C 707.543,90.8465 712.876,94.1798 717.5,98.5C 717.427,100.027 718.094,101.027 719.5,101.5C 716.997,112.467 716.997,123.467 719.5,134.5C 719.546,138.428 718.88,142.095 717.5,145.5C 717.5,144.167 717.5,142.833 717.5,141.5C 713.958,141.187 710.625,141.521 707.5,142.5C 706.579,141.019 705.412,139.686 704,138.5C 703.098,138.743 702.265,139.077 701.5,139.5C 701.5,137.5 701.5,135.5 701.5,133.5C 702.391,132.739 703.058,131.739 703.5,130.5C 702.673,127.217 702.34,123.884 702.5,120.5C 704.451,120.227 705.951,120.893 707,122.5C 709.489,138.646 710.656,138.98 710.5,123.5C 712.167,123.5 713.833,123.5 715.5,123.5C 715.5,117.5 715.5,111.5 715.5,105.5C 713.833,105.5 712.167,105.5 710.5,105.5C 710.662,103.473 710.495,101.473 710,99.5C 707.287,97.2805 704.454,95.2805 701.5,93.5C 701.5,91.8333 701.5,90.1667 701.5,88.5 Z"/></g>
<g><path style="opacity:1" fill="#6e6f6f" d="M 664.5,134.5 C 666.288,133.378 668.288,133.211 670.5,134C 671.022,134.561 671.355,135.228 671.5,136C 670.104,138.235 668.104,139.402 665.5,139.5C 665.784,137.585 665.451,135.919 664.5,134.5 Z"/></g>
<g><path style="opacity:1" fill="#363736" d="M 701.5,133.5 C 701.5,135.5 701.5,137.5 701.5,139.5C 700.5,139.833 699.833,140.5 699.5,141.5C 697.833,141.5 696.167,141.5 694.5,141.5C 694.708,136.96 697.041,134.293 701.5,133.5 Z"/></g>
<g><path style="opacity:1" fill="#212225" d="M 664.5,134.5 C 665.451,135.919 665.784,137.585 665.5,139.5C 663.297,139.604 661.297,140.27 659.5,141.5C 656.941,141.198 654.607,141.532 652.5,142.5C 651.167,142.5 649.833,142.5 648.5,142.5C 647.258,140.389 647.258,138.389 648.5,136.5C 649.742,137.043 651.075,137.377 652.5,137.5C 656.512,136.495 660.512,135.495 664.5,134.5 Z"/></g>
<g><path style="opacity:1" fill="#6f706e" d="M 694.5,141.5 C 696.167,141.5 697.833,141.5 699.5,141.5C 699.663,143.857 699.497,146.19 699,148.5C 698,149.167 697,149.833 696,150.5C 693.53,147.686 693.03,144.686 694.5,141.5 Z"/></g>
<g><path style="opacity:1" fill="#474748" d="M 637.5,141.5 C 639.415,141.216 641.081,141.549 642.5,142.5C 641.886,148.238 640.886,153.905 639.5,159.5C 638.167,159.5 636.833,159.5 635.5,159.5C 635.5,157.833 635.5,156.167 635.5,154.5C 635.423,150.038 636.09,145.705 637.5,141.5 Z"/></g>
<g><path style="opacity:1" fill="#101011" d="M 781.5,141.5 C 783.5,141.5 785.5,141.5 787.5,141.5C 790.171,146.849 791.838,152.516 792.5,158.5C 791.081,159.451 789.415,159.784 787.5,159.5C 785.703,153.442 783.703,147.442 781.5,141.5 Z"/></g>
<g><path style="opacity:1" fill="#2c2b2f" d="M 647.5,149.5 C 647.817,152.572 647.484,155.572 646.5,158.5C 645.614,157.675 645.281,156.675 645.5,155.5C 645.259,153.102 645.926,151.102 647.5,149.5 Z"/></g>
<g><path style="opacity:1" fill="#676768" d="M 652.5,142.5 C 654.607,141.532 656.941,141.198 659.5,141.5C 657.548,148.379 659.548,153.712 665.5,157.5C 664.198,159.028 662.531,160.028 660.5,160.5C 657.769,158.929 655.935,156.595 655,153.5C 654.892,149.535 654.059,145.868 652.5,142.5 Z"/></g>
<g><path style="opacity:1" fill="#363638" d="M 717.5,145.5 C 717.279,148.279 717.612,150.946 718.5,153.5C 717.539,155.265 717.205,157.265 717.5,159.5C 713.833,159.5 710.167,159.5 706.5,159.5C 705.387,158.054 705.22,156.387 706,154.5C 707.333,153.167 708.667,153.167 710,154.5C 709.814,150.416 708.981,146.416 707.5,142.5C 710.625,141.521 713.958,141.187 717.5,141.5C 717.5,142.833 717.5,144.167 717.5,145.5 Z"/></g>
<g><path style="opacity:0.977" fill="#fdfdfd" d="M 264.5,157.5 C 310.488,155.485 351.821,167.985 388.5,195C 395.605,200.102 401.272,206.436 405.5,214C 404.284,217.221 402.284,219.888 399.5,222C 388.675,229.913 377.675,237.58 366.5,245C 360.405,246.266 354.738,245.266 349.5,242C 319.109,217.922 285.109,211.256 247.5,222C 234.274,226.609 222.274,233.276 211.5,242C 208.033,244.786 204.366,245.12 200.5,243C 192.234,236.738 184.568,229.738 177.5,222C 174.5,220.167 171.5,218.333 168.5,216.5C 155.944,227.884 145.444,240.884 137,255.5C 134.561,263.455 135.227,271.122 139,278.5C 150.58,292.987 159.58,308.987 166,326.5C 168.759,338.669 170.092,351.002 170,363.5C 170.333,390.833 170.667,418.167 171,445.5C 178.764,469.259 194.931,478.759 219.5,474C 229.819,469.351 237.986,462.185 244,452.5C 245.578,449.343 246.578,446.009 247,442.5C 247.041,402.471 247.708,362.471 249,322.5C 254.649,304.081 267.149,294.414 286.5,293.5C 308.903,295.735 321.737,308.068 325,330.5C 325.333,364.5 325.667,398.5 326,432.5C 326.67,450.344 334.837,463.511 350.5,472C 374.116,478.109 390.616,469.942 400,447.5C 401.892,435.757 402.725,423.924 402.5,412C 401.533,383.837 401.367,355.67 402,327.5C 406.381,302.447 421.214,290.947 446.5,293C 464.275,296.773 474.441,307.606 477,325.5C 477.296,345.006 477.796,364.506 478.5,384C 477.428,404.583 478.261,425.083 481,445.5C 493.745,475.305 513.912,481.805 541.5,465C 548.447,458.61 552.947,450.777 555,441.5C 555.756,403.161 555.589,364.828 554.5,326.5C 554.557,319.798 555.057,313.132 556,306.5C 556.903,305.299 558.069,304.465 559.5,304C 582.833,303.333 606.167,303.333 629.5,304C 630.717,305.648 631.55,307.481 632,309.5C 632.333,353.833 632.667,398.167 633,442.5C 633.876,446.341 635.209,450.007 637,453.5C 646,461.167 655,468.833 664,476.5C 675.444,496.239 672.944,514.072 656.5,530C 635.563,541.761 617.897,538.094 603.5,519C 602.271,518.219 600.938,517.719 599.5,517.5C 592.216,520.809 585.216,524.642 578.5,529C 540.667,546.559 502.667,546.892 464.5,530C 456.13,525.483 447.796,520.983 439.5,516.5C 438.062,516.719 436.729,517.219 435.5,518C 427.124,526.857 417.124,533.19 405.5,537C 389.903,538.172 374.236,538.005 358.5,536.5C 295.269,560.572 233.935,556.405 174.5,524C 95.6233,472.702 65.1233,400.535 83,307.5C 105.41,229.427 156.244,180.927 235.5,162C 245.237,160.1 254.903,158.6 264.5,157.5 Z"/></g>
<g><path style="opacity:1" fill="#6a6a6a" d="M 650.5,159.5 C 649.5,159.5 648.5,159.5 647.5,159.5C 647.5,162.5 647.5,165.5 647.5,168.5C 644.62,164.452 643.954,160.119 645.5,155.5C 645.281,156.675 645.614,157.675 646.5,158.5C 647.484,155.572 647.817,152.572 647.5,149.5C 648.287,147.896 649.62,147.229 651.5,147.5C 650.838,151.466 650.505,155.466 650.5,159.5 Z"/></g>
<g><path style="opacity:1" fill="#3d3d41" d="M 665.5,157.5 C 667.17,157.751 668.67,158.418 670,159.5C 670.617,160.449 670.451,161.282 669.5,162C 666.259,162.793 663.259,162.293 660.5,160.5C 662.531,160.028 664.198,159.028 665.5,157.5 Z"/></g>
<g><path style="opacity:1" fill="#424344" d="M 701.5,162.5 C 701.784,164.415 701.451,166.081 700.5,167.5C 695.584,166.914 692.584,164.247 691.5,159.5C 695.195,159.35 698.528,160.35 701.5,162.5 Z"/></g>
<g><path style="opacity:1" fill="#5a5859" d="M 792.5,158.5 C 793.634,160.966 793.801,163.633 793,166.5C 790.918,169.15 789.251,168.816 788,165.5C 787.505,163.527 787.338,161.527 787.5,159.5C 789.415,159.784 791.081,159.451 792.5,158.5 Z"/></g>
<g><path style="opacity:0.712" fill="#f9f9f5" d="M 831.5,166.5 C 839.977,167.358 848.143,167.358 856,166.5C 860.347,168.499 860.514,170.666 856.5,173C 848.167,173.667 839.833,173.667 831.5,173C 818.341,170.183 818.341,168.017 831.5,166.5 Z"/></g>
<g><path style="opacity:1" fill="#f0f0ec" d="M 580.5,166.5 C 590.872,166.24 601.206,166.573 611.5,167.5C 611.5,168.833 611.5,170.167 611.5,171.5C 602.906,173.173 594.239,173.673 585.5,173C 580.801,172.831 579.135,170.664 580.5,166.5 Z"/></g>
<g><path style="opacity:1" fill="#3f4043" d="M 708.5,194.5 C 706.833,194.5 705.167,194.5 703.5,194.5C 698.871,184.009 692.371,174.675 684,166.5C 682.311,161.475 679.144,157.641 674.5,155C 669.831,154.177 666.498,151.677 664.5,147.5C 665,146.119 666,145.453 667.5,145.5C 670.523,147.678 673.856,149.345 677.5,150.5C 680.11,149.223 682.444,147.557 684.5,145.5C 688.33,146.958 688.496,148.958 685,151.5C 684.333,153.5 684.333,155.5 685,157.5C 689.15,165.658 694.817,172.658 702,178.5C 704.459,183.746 706.625,189.079 708.5,194.5 Z"/></g>
<g><path style="opacity:1" fill="#6d6e6d" d="M 635.5,154.5 C 635.5,156.167 635.5,157.833 635.5,159.5C 636.833,159.5 638.167,159.5 639.5,159.5C 637.378,166.983 640.045,170.983 647.5,171.5C 647.5,173.167 647.5,174.833 647.5,176.5C 649.167,176.5 650.833,176.5 652.5,176.5C 648.492,177.017 644.492,177.351 640.5,177.5C 638.833,177.5 637.167,177.5 635.5,177.5C 634.889,173.67 634.223,169.837 633.5,166C 633.992,161.995 634.659,158.162 635.5,154.5 Z"/></g>
<g><path style="opacity:1" fill="#717170" d="M 718.5,153.5 C 718.99,158.314 719.324,163.147 719.5,168C 719.692,172.772 719.025,177.272 717.5,181.5C 718.625,174.498 718.625,167.498 717.5,160.5C 716.505,166.128 716.171,171.794 716.5,177.5C 714.5,177.5 712.5,177.5 710.5,177.5C 710.5,174.5 710.5,171.5 710.5,168.5C 706.958,168.813 703.625,168.479 700.5,167.5C 701.451,166.081 701.784,164.415 701.5,162.5C 703.167,162.5 704.833,162.5 706.5,162.5C 706.5,161.5 706.5,160.5 706.5,159.5C 710.167,159.5 713.833,159.5 717.5,159.5C 717.205,157.265 717.539,155.265 718.5,153.5 Z"/></g>
<g><path style="opacity:1" fill="#333437" d="M 650.5,159.5 C 649.986,163.753 650.986,167.587 653.5,171C 657.049,171.159 660.549,170.659 664,169.5C 666.5,170.333 667,171.833 665.5,174C 661.414,176.053 657.08,176.887 652.5,176.5C 650.833,176.5 649.167,176.5 647.5,176.5C 647.5,174.833 647.5,173.167 647.5,171.5C 647.5,170.5 647.5,169.5 647.5,168.5C 647.5,165.5 647.5,162.5 647.5,159.5C 648.5,159.5 649.5,159.5 650.5,159.5 Z"/></g>
<g><path style="opacity:1" fill="#6b6c6b" d="M 686.5,176.5 C 688.337,179.519 688.837,182.852 688,186.5C 688.175,189.818 686.675,191.818 683.5,192.5C 683.5,187.5 683.5,182.5 683.5,177.5C 684.791,177.737 685.791,177.404 686.5,176.5 Z"/></g>
<g><path style="opacity:1" fill="#3f3f40" d="M 635.5,177.5 C 637.167,177.5 638.833,177.5 640.5,177.5C 640.733,180.542 641.733,183.208 643.5,185.5C 644.568,186.434 645.901,186.768 647.5,186.5C 647.5,188.167 647.5,189.833 647.5,191.5C 645.519,192.105 645.185,193.105 646.5,194.5C 644.833,194.5 643.167,194.5 641.5,194.5C 638.442,189.304 636.442,183.638 635.5,177.5 Z"/></g>
<g><path style="opacity:1" fill="#5f5e62" d="M 643.5,185.5 C 650.833,185.5 658.167,185.5 665.5,185.5C 665.5,187.167 665.5,188.833 665.5,190.5C 659.5,190.833 653.5,191.167 647.5,191.5C 647.5,189.833 647.5,188.167 647.5,186.5C 645.901,186.768 644.568,186.434 643.5,185.5 Z"/></g>
<g><path style="opacity:1" fill="#3a3b3b" d="M 717.5,181.5 C 717.5,185.833 717.5,190.167 717.5,194.5C 715.167,194.5 712.833,194.5 710.5,194.5C 710.5,188.833 710.5,183.167 710.5,177.5C 712.5,177.5 714.5,177.5 716.5,177.5C 716.171,171.794 716.505,166.128 717.5,160.5C 718.625,167.498 718.625,174.498 717.5,181.5 Z"/></g>
<g><path style="opacity:1" fill="#3e3e41" d="M 686.5,176.5 C 685.791,177.404 684.791,177.737 683.5,177.5C 683.5,182.5 683.5,187.5 683.5,192.5C 677.394,192.623 671.394,191.956 665.5,190.5C 665.5,188.833 665.5,187.167 665.5,185.5C 670.031,185.894 674.531,186.561 679,187.5C 680.107,187.415 681.107,187.081 682,186.5C 679.883,183.36 677.216,180.36 674,177.5C 673.505,175.527 673.338,173.527 673.5,171.5C 674.552,171.351 675.552,171.517 676.5,172C 678.293,173.78 679.96,175.613 681.5,177.5C 681.92,175.674 681.92,173.674 681.5,171.5C 684.702,171.537 686.368,173.203 686.5,176.5 Z"/></g>
<g><path style="opacity:1" fill="#727273" d="M 703.5,194.5 C 705.167,194.5 706.833,194.5 708.5,194.5C 709.167,194.5 709.833,194.5 710.5,194.5C 712.833,194.5 715.167,194.5 717.5,194.5C 718.117,194.611 718.617,194.944 719,195.5C 719.667,207.5 719.667,219.5 719,231.5C 717.364,236.144 716.531,240.811 716.5,245.5C 711.833,246.833 707.167,246.833 702.5,245.5C 706.833,245.5 711.167,245.5 715.5,245.5C 715.5,240.833 715.5,236.167 715.5,231.5C 713.833,231.5 712.167,231.5 710.5,231.5C 710.662,229.473 710.495,227.473 710,225.5C 709.586,225.043 709.086,224.709 708.5,224.5C 707.128,228.079 705.128,231.246 702.5,234C 696.791,236.594 690.791,237.927 684.5,238C 689.773,241.257 695.439,243.423 701.5,244.5C 701.5,244.833 701.5,245.167 701.5,245.5C 696.821,245.334 692.155,245.501 687.5,246C 686.529,247.481 685.196,248.315 683.5,248.5C 683.313,246.436 682.813,244.436 682,242.5C 679.336,241.002 677.17,239.002 675.5,236.5C 678.372,237.526 680.872,239.192 683,241.5C 683.498,238.518 683.665,235.518 683.5,232.5C 699.499,234.186 705.166,227.52 700.5,212.5C 701.515,209.832 703.182,209.166 705.5,210.5C 706.933,213.333 707.6,216.333 707.5,219.5C 708.5,219.5 709.5,219.5 710.5,219.5C 710.666,214.156 710.499,208.823 710,203.5C 707.334,200.824 705.167,197.824 703.5,194.5 Z"/></g>
<g><path style="opacity:0.231" fill="#797a78" d="M 641.5,194.5 C 643.167,194.5 644.833,194.5 646.5,194.5C 647.11,195.391 647.443,196.391 647.5,197.5C 647.806,200.385 647.473,203.052 646.5,205.5C 644.576,201.983 642.909,198.316 641.5,194.5 Z"/></g>
<g><path style="opacity:1" fill="#6b6b6d" d="M 665.5,205.5 C 665.5,203.833 665.5,202.167 665.5,200.5C 670.794,200.781 675.96,201.781 681,203.5C 684.211,200.627 687.711,198.127 691.5,196C 694.482,195.502 697.482,195.335 700.5,195.5C 700.714,197.144 700.38,198.644 699.5,200C 695.124,199.615 691.791,201.281 689.5,205C 692.94,206.503 694.94,209.003 695.5,212.5C 685.612,209.862 675.612,207.529 665.5,205.5 Z"/></g>
<g><path style="opacity:1" fill="#525252" d="M 716.5,195.5 C 717.117,195.611 717.617,195.944 718,196.5C 718.832,207.848 718.666,219.181 717.5,230.5C 716.501,218.852 716.168,207.186 716.5,195.5 Z"/></g>
<g><path style="opacity:1" fill="#3d3d3e" d="M 647.5,197.5 C 648.546,199.54 650.213,200.873 652.5,201.5C 656.787,200.625 661.121,200.292 665.5,200.5C 665.5,202.167 665.5,203.833 665.5,205.5C 662.482,205.335 659.482,205.502 656.5,206C 655.692,206.308 655.025,206.808 654.5,207.5C 657.814,212.146 661.481,216.479 665.5,220.5C 665.785,222.288 665.452,223.955 664.5,225.5C 662.479,222.812 660.146,220.479 657.5,218.5C 653.458,214.46 649.791,210.127 646.5,205.5C 647.473,203.052 647.806,200.385 647.5,197.5 Z"/></g>
<g><path style="opacity:1" fill="#7e7e7c" d="M 657.5,218.5 C 660.146,220.479 662.479,222.812 664.5,225.5C 665.452,223.955 665.785,222.288 665.5,220.5C 668.936,224.057 672.603,227.391 676.5,230.5C 673.918,230.025 671.918,230.692 670.5,232.5C 665.127,228.794 660.794,224.127 657.5,218.5 Z"/></g>
<g><path style="opacity:1" fill="#41413f" d="M 676.5,230.5 C 678.833,231.167 681.167,231.833 683.5,232.5C 683.665,235.518 683.498,238.518 683,241.5C 680.872,239.192 678.372,237.526 675.5,236.5C 673.251,235.92 671.585,234.587 670.5,232.5C 671.918,230.692 673.918,230.025 676.5,230.5 Z"/></g>
<g><path style="opacity:1" fill="#f9f8f9" d="M 710.5,231.5 C 710.5,235.833 710.5,240.167 710.5,244.5C 707.5,244.5 704.5,244.5 701.5,244.5C 695.439,243.423 689.773,241.257 684.5,238C 690.791,237.927 696.791,236.594 702.5,234C 705.128,231.246 707.128,228.079 708.5,224.5C 709.086,224.709 709.586,225.043 710,225.5C 710.495,227.473 710.662,229.473 710.5,231.5 Z"/></g>
<g><path style="opacity:0.573" fill="#d5d4d4" d="M 727.5,236.5 C 728.482,233.038 728.815,229.371 728.5,225.5C 729.222,225.082 729.722,224.416 730,223.5C 730.5,230.492 730.666,237.492 730.5,244.5C 739.173,244.334 747.84,244.5 756.5,245C 747.482,245.832 738.482,245.665 729.5,244.5C 728.215,241.979 727.548,239.313 727.5,236.5 Z"/></g>
<g><path style="opacity:1" fill="#363638" d="M 710.5,231.5 C 712.167,231.5 713.833,231.5 715.5,231.5C 715.5,236.167 715.5,240.833 715.5,245.5C 711.167,245.5 706.833,245.5 702.5,245.5C 702.167,245.5 701.833,245.5 701.5,245.5C 701.5,245.167 701.5,244.833 701.5,244.5C 704.5,244.5 707.5,244.5 710.5,244.5C 710.5,240.167 710.5,235.833 710.5,231.5 Z"/></g>
<g><path style="opacity:0.594" fill="#fafbf9" d="M 643.5,241.5 C 645.346,241.222 646.68,241.889 647.5,243.5C 640.351,252.482 632.351,260.649 623.5,268C 621.975,269.009 620.308,269.509 618.5,269.5C 618.351,268.448 618.517,267.448 619,266.5C 621,263.833 623,261.167 625,258.5C 630.743,252.316 636.91,246.649 643.5,241.5 Z"/></g>
<g><path style="opacity:0.669" fill="#f9faf7" d="M 796.5,245.5 C 798.308,245.491 799.975,245.991 801.5,247C 807.529,253.692 813.529,260.359 819.5,267C 818.07,268.44 816.403,268.774 814.5,268C 808.338,262.838 802.505,257.338 797,251.5C 796.505,249.527 796.338,247.527 796.5,245.5 Z"/></g>
<g><path style="opacity:0.982" fill="#fdfdfd" d="M 853.5,281.5 C 881.169,281.333 908.835,281.5 936.5,282C 965.533,291.203 978.033,311.037 974,341.5C 972.258,347.725 969.925,353.725 967,359.5C 957.491,373.852 947.491,387.852 937,401.5C 935.452,404.206 934.286,407.04 933.5,410C 934.167,411 934.833,412 935.5,413C 959.848,411.92 977.682,422.086 989,443.5C 1000.17,478.35 989.671,504.184 957.5,521C 953.877,522.156 950.211,523.156 946.5,524C 917.167,524.667 887.833,524.667 858.5,524C 837.133,518.301 823.3,504.801 817,483.5C 811.904,467.821 813.571,452.821 822,438.5C 830.018,425.13 839.018,412.464 849,400.5C 851.507,397.624 852.007,394.457 850.5,391C 818.951,381.084 804.451,359.584 807,326.5C 812.876,301.456 828.376,286.456 853.5,281.5 Z"/></g>
<g><path style="opacity:0.977" fill="#fdfdfc" d="M 719.5,303.5 C 742.935,299.386 761.768,306.719 776,325.5C 779.141,331.116 781.141,337.116 782,343.5C 782.667,391.833 782.667,440.167 782,488.5C 776.571,509.592 763.071,522.092 741.5,526C 719.342,527.849 701.842,519.682 689,501.5C 685.488,495.635 683.155,489.302 682,482.5C 681.029,434.468 681.363,386.468 683,338.5C 689.253,320.631 701.419,308.964 719.5,303.5 Z"/></g>
</svg>
